<?xml version="1.0" encoding="utf-8"?>
<!-- Generator: Adobe Illustrator 28.3.0, SVG Export Plug-In . SVG Version: 6.00 Build 0)  -->
<svg version="1.1" id="Layer_1" xmlns="http://www.w3.org/2000/svg" xmlns:xlink="http://www.w3.org/1999/xlink" x="0px" y="0px"
	 viewBox="0 0 800 800" style="enable-background:new 0 0 800 800;" xml:space="preserve">
<style type="text/css">
	.st0{fill:#2DA6D2;}
</style>
<path class="st0" d="M454.9,341.2c-1.9-1.1-5.3-1.6-10.4-1.6v118.1c6.7,0,10.8-1.4,12.4-4.1c1.6-2.7,2.3-10,2.3-22v-69.7
	c0-8.1-0.3-13.3-0.8-15.6C458,344.2,456.7,342.3,454.9,341.2L454.9,341.2z M571.5,380.6c-2.7,0-4.6,1-5.4,3c-0.8,2-1.2,7.1-1.2,15.3
	v47.5c0,7.9,0.5,13,1.4,15.2c1,2.2,2.9,3.3,5.6,3.3c2.9,0,6.6-1.2,7.5-3.4c0.9-2.3,1.3-7.8,1.3-16.5V399c0-7.6-0.5-12.6-1.4-14.9
	C578.1,381.8,574.3,380.6,571.5,380.6L571.5,380.6z"/>
<path class="st0" d="M666.7,100H133.3c-18.4,0-33.3,14.9-33.3,33.3v533.3c0,18.4,14.9,33.3,33.3,33.3h533.3
	c18.4,0,33.3-14.9,33.3-33.3V133.3C700,114.9,685.1,100,666.7,100z M221,488.8h-46.7V308.9H221V488.8z M381.8,488.8H341l-0.2-121.4
	l-16.3,121.4h-29.2L278.1,370l-0.1,118.8H237V308.9h60.6c1.7,10.9,3.6,23.7,5.5,38.3l6.7,45.7l10.8-84h61.1L381.8,488.8L381.8,488.8
	z M503.9,435.4c0,16.1-0.9,26.9-2.4,32.3c-1.2,5-4,9.5-7.9,12.8c-4.1,3.2-8.9,5.4-14.1,6.4c-5.5,1.2-13.9,1.8-25.1,1.8h-56.6V308.9
	h34.9c22.6,0,35.7,1,43.6,3.1c8,2.1,14.1,5.5,18.2,10.2c4.2,4.7,6.8,10,7.8,15.8c1,5.8,1.7,17.2,1.7,34.2L503.9,435.4L503.9,435.4z
	 M625.7,447.5c0,10.8-0.8,18.8-2.2,24.1c-1.7,5.7-5.4,10.5-10.3,13.8c-5.6,3.9-12.3,6-19.1,5.8c-5.3,0-12.2-1.2-16.7-3.5
	c-4.9-2.5-9.2-6.1-12.6-10.4l-2.9,11.5h-42.1V308.9h45v58.5c3.4-4.1,7.7-7.4,12.5-9.6c4.6-2.1,11.5-3.2,16.8-3.2
	c6.2,0,11.6,1,16.1,2.9c7.8,3.1,13.3,10.1,14.7,18.3c0.5,3.3,0.8,10.4,0.8,21.3L625.7,447.5L625.7,447.5z"/>
</svg>
