<?xml version="1.0" encoding="utf-8"?>
<!-- Generator: Adobe Illustrator 28.3.0, SVG Export Plug-In . SVG Version: 6.00 Build 0)  -->
<svg version="1.1" id="Layer_1" xmlns="http://www.w3.org/2000/svg" xmlns:xlink="http://www.w3.org/1999/xlink" x="0px" y="0px"
	 viewBox="0 0 800 800" style="enable-background:new 0 0 800 800;" xml:space="preserve">
<style type="text/css">
	.st0{fill:#2DA6D2;}
</style>
<path class="st0" d="M698.2,276.8c-0.3-25.2-5.1-50.2-14-73.9c-15.6-40.3-47.5-72.2-87.8-87.8c-23.3-8.8-48-13.5-72.9-14
	c-32.1-1.4-42.2-1.8-123.6-1.8s-91.8,0-123.7,1.8c-24.9,0.5-49.5,5.2-72.8,14c-40.3,15.6-72.2,47.5-87.8,87.8
	c-8.8,23.3-13.5,47.9-14,72.8c-1.4,32.1-1.9,42.3-1.9,123.7s0,91.8,1.9,123.7c0.5,24.9,5.2,49.5,14,72.9
	c15.6,40.3,47.5,72.1,87.8,87.7c23.2,9.1,47.9,14.2,72.8,15c32.1,1.4,42.3,1.9,123.7,1.9s91.8,0,123.7-1.9
	c24.9-0.5,49.5-5.2,72.9-14c40.3-15.6,72.1-47.5,87.8-87.8c8.8-23.3,13.5-47.9,14-72.9c1.4-32.1,1.9-42.2,1.9-123.7
	C700.1,319.1,700.1,308.7,698.2,276.8z M399.8,553.4c-85.1,0-154.1-69-154.1-154.1s69-154.1,154.1-154.1
	c85.1,0,154.1,69,154.1,154.1S484.9,553.4,399.8,553.4z M560,275.4c-19.8,0-35.9-16-35.9-35.9c0,0,0,0,0-0.1
	c0-19.8,16.1-35.9,35.9-35.9s35.9,16.1,35.9,35.9l0,0C595.9,259.4,579.9,275.4,560,275.4z"/>
<circle class="st0" cx="399.8" cy="399.3" r="100.1"/>
</svg>
